HIERARCHY
ROOT Hips
{
	OFFSET 0.000000 0.000000 0.000000 
	CHANNELS 6 Xposition Yposition Zposition Zrotation Yrotation Xrotation
	JOINT LeftUpLeg
	{
		OFFSET 1.363060 -1.794630 0.839290 
		CHANNELS 3 Zrotation Yrotation Xrotation
		JOINT LeftLeg
		{
			OFFSET 2.448110 -6.726130 0.000000 
			CHANNELS 3 Zrotation Yrotation Xrotation
			JOINT LeftFoot
			{
				OFFSET 2.562200 -7.039590 0.000000 
				CHANNELS 3 Zrotation Yrotation Xrotation
				JOINT LeftToeBase
				{
					OFFSET 0.157640 -0.433110 2.322550 
					CHANNELS 3 Zrotation Yrotation Xrotation
					End Site
					{
						OFFSET 0.000000 0.000000 0.000000 
					}
				}
			}
		}
	}
	JOINT RightUpLeg
	{
		OFFSET -1.305520 -1.794630 0.839290 
		CHANNELS 3 Zrotation Yrotation Xrotation
		JOINT RightLeg
		{
			OFFSET -2.542530 -6.985550 0.000000 
			CHANNELS 3 Zrotation Yrotation Xrotation
			JOINT RightFoot
			{
				OFFSET -2.568260 -7.056230 0.000000 
				CHANNELS 3 Zrotation Yrotation Xrotation
				JOINT RightToeBase
				{
					OFFSET -0.164730 -0.452590 2.363150 
					CHANNELS 3 Zrotation Yrotation Xrotation
					End Site
					{
						OFFSET 0.000000 0.000000 0.000000 
					}
				}
			}
		}
	}
	JOINT Spine
	{
		OFFSET 0.028270 2.035590 -0.193380 
		CHANNELS 3 Zrotation Yrotation Xrotation
		JOINT Spine1
		{
			OFFSET 0.056720 2.048850 -0.042750 
			CHANNELS 3 Zrotation Yrotation Xrotation
			JOINT Neck1
			{
				OFFSET -0.054170 1.746240 0.172020 
				CHANNELS 3 Zrotation Yrotation Xrotation
				JOINT Head
				{
					OFFSET 0.104070 1.761360 -0.123970 
					CHANNELS 3 Zrotation Yrotation Xrotation
					End Site
					{
						OFFSET 0.000000 0.000000 0.000000 
					}
				}
			}
			JOINT LeftArm
			{
				OFFSET 3.362410 1.200890 -0.311210 
				CHANNELS 3 Zrotation Yrotation Xrotation
				JOINT LeftForeArm
				{
					OFFSET 4.983000 -0.000000 -0.000000 
					CHANNELS 3 Zrotation Yrotation Xrotation
					JOINT LeftHand
					{
						OFFSET 3.483560 -0.000000 -0.000000 
						CHANNELS 3 Zrotation Yrotation Xrotation
						JOINT LeftHandIndex1
						{
							OFFSET 0.715260 -0.000000 -0.000000 
							CHANNELS 3 Zrotation Yrotation Xrotation
							End Site
							{
								OFFSET 0.000000 0.000000 0.000000 
							}
						}
					}
				}
			}
			JOINT RightArm
			{
				OFFSET -3.136600 1.374050 -0.404650 
				CHANNELS 3 Zrotation Yrotation Xrotation
				JOINT RightForeArm
				{
					OFFSET -5.241900 -0.000000 -0.000000 
					CHANNELS 3 Zrotation Yrotation Xrotation
					JOINT RightHand
					{
						OFFSET -3.444170 -0.000000 -0.000000 
						CHANNELS 3 Zrotation Yrotation Xrotation
						JOINT RightHandIndex1
						{
							OFFSET -0.622530 -0.000000 -0.000000 
							CHANNELS 3 Zrotation Yrotation Xrotation
							End Site
							{
								OFFSET 0.000000 0.000000 0.000000 
							}
						}
					}
				}
			}
		}
	}
}
MOTION
Frames: 13
Frame Time: 0.041667
1.397632 17.708188 -20.521975 11.323464 1.520734 8.910280 -28.249131 0.127531 -1.310360 -0.979021 3.719408 8.512970 -2.171840 12.224419 2.378113 0.529600 -4.663400 -12.950900 -5.222639 -2.895419 -37.631809 -2.778561 -10.371766 29.381594 3.537967 -15.822610 -0.662629 -0.503400 4.548400 -12.624900 10.949869 2.638395 -0.401783 12.075319 1.889974 -8.676507 -9.352187 4.290378 7.727905 -6.634100 0.931200 9.232000 -86.595242 7.146789 37.504252 50.685511 -53.476280 -24.977347 0.183462 0.347157 -12.033177 -7.125000 0.000000 0.000000 72.912303 -14.946823 -20.730227 -19.803654 29.220003 -4.909572 0.136251 -0.591325 -11.447156 7.125000 0.000000 0.000000 
1.379999 17.715518 -20.400231 11.418249 1.582297 9.044777 -28.293553 0.213370 -0.289183 -1.037370 3.229532 7.148043 -2.153929 12.362942 3.039642 0.563500 -4.807800 -13.361100 -5.244090 -2.629855 -37.531976 -2.486146 -9.907560 27.832081 3.742035 -16.473975 -1.475213 -0.510300 4.579100 -12.711800 10.925477 2.576467 -0.415106 12.121501 1.856525 -8.638429 -9.295772 4.293408 7.720087 -6.605600 0.934300 9.234000 -86.617023 7.103793 37.691067 50.859647 -53.546718 -25.113322 0.183205 0.344219 -12.047162 -7.125000 0.000000 0.000000 73.016452 -14.956389 -20.543053 -19.840603 29.268784 -4.925847 0.136772 -0.590422 -11.482237 7.125000 0.000000 0.000000 
1.361079 17.721561 -20.277199 11.509302 1.651932 9.173395 -28.327759 0.307813 0.790188 -1.085011 2.705119 5.695986 -2.116977 12.458946 3.771073 0.603400 -4.972200 -13.829200 -5.261493 -2.375564 -37.438164 -2.242785 -9.502147 26.497822 3.933243 -17.087683 -2.284821 -0.515100 4.600300 -12.772000 10.899367 2.515273 -0.417612 12.152233 1.820925 -8.578196 -9.263231 4.304270 7.683437 -6.586300 0.939800 9.223200 -86.641016 7.035205 37.902086 50.925458 -53.573330 -25.165342 0.182566 0.340649 -11.975594 -7.125000 0.000000 0.000000 73.123238 -14.947224 -20.359205 -19.889475 29.332519 -4.948530 0.137684 -0.590289 -11.513521 7.125000 0.000000 0.000000 
1.340375 17.725919 -20.152681 11.598363 1.738984 9.282576 -28.349056 0.409636 1.947271 -1.119095 2.146430 4.156331 -2.060329 12.516247 4.582254 0.649600 -5.155500 -14.352600 -5.264310 -2.148142 -37.336492 -2.048256 -9.165963 25.399822 4.114914 -17.678986 -3.071931 -0.517900 4.612400 -12.806300 10.869633 2.458916 -0.414734 12.164539 1.785382 -8.515822 -9.190234 4.282528 7.657494 -6.548000 0.931300 9.210700 -86.660697 6.977369 38.155936 50.928813 -53.574468 -25.168076 0.180291 0.337609 -11.841842 -7.125000 0.000000 0.000000 73.237047 -14.959572 -20.154212 -19.963401 29.426414 -4.983274 0.139288 -0.591019 -11.599464 7.125000 0.000000 0.000000 
1.318087 17.728495 -20.026875 11.685394 1.830103 9.378555 -28.361485 0.548692 3.251909 -1.137647 1.491629 2.360695 -1.975609 12.540241 5.567646 0.702600 -5.357700 -14.931800 -5.233219 -1.963273 -37.246869 -1.901082 -8.907915 24.554213 4.280633 -18.229049 -3.774200 -0.521500 4.628000 -12.850400 10.839437 2.409270 -0.412377 12.168845 1.753362 -8.457400 -9.157538 4.269517 7.578654 -6.526800 0.925900 9.170800 -86.684738 6.941421 38.432005 50.870666 -53.550511 -25.122032 0.176442 0.334478 -11.647915 -7.125000 0.000000 0.000000 73.349325 -14.992515 -19.930187 -20.052576 29.537937 -5.025444 0.141187 -0.592336 -11.703330 7.125000 0.000000 0.000000 
1.293817 17.729287 -19.899683 11.762181 1.927901 9.449904 -28.350805 0.695904 4.583052 -1.132921 0.836363 0.568229 -1.873411 12.534155 6.604106 0.761200 -5.571800 -15.546800 -5.154994 -1.822241 -37.151351 -1.798086 -8.730943 23.967125 4.424516 -18.713385 -4.406817 -0.519200 4.618300 -12.823100 10.815070 2.364916 -0.405518 12.173317 1.723440 -8.402357 -9.121448 4.238033 7.525555 -6.505300 0.912100 9.137300 -86.722676 6.926902 38.724811 50.757466 -53.504060 -25.032512 0.171231 0.331336 -11.399013 -7.125000 0.000000 0.000000 73.446311 -15.038364 -19.699167 -20.148221 29.656004 -5.070182 0.142862 -0.593331 -11.792464 7.125000 0.000000 0.000000 
1.268260 17.728594 -19.770905 11.843873 2.018352 9.488295 -28.301995 0.629273 5.024502 -1.128659 0.839383 0.565093 -1.859946 12.548449 6.787820 0.825000 -5.795000 -16.190800 -5.040278 -1.771221 -37.055699 -1.739727 -8.628730 23.634066 4.536935 -19.092993 -4.877436 -0.515300 4.600900 -12.773500 10.780794 2.327740 -0.394519 12.168915 1.701619 -8.352912 -9.127613 4.190206 7.453020 -6.508600 0.888600 9.094800 -86.757915 6.923438 39.039487 50.594053 -53.436477 -24.903009 0.164227 0.328356 -11.110831 -7.125000 0.000000 0.000000 73.538428 -15.103750 -19.455415 -20.250593 29.781311 -5.118302 0.144504 -0.594539 -11.879179 7.125000 0.000000 0.000000 
1.240820 17.726613 -19.640741 11.933284 2.103052 9.508795 -28.251951 0.573857 5.480968 -1.123826 0.842415 0.561554 -1.836325 12.540638 7.033078 0.891400 -6.017800 -16.836000 -4.886844 -1.777136 -36.947236 -1.718227 -8.602076 23.531896 4.615520 -19.363075 -5.177425 -0.505900 4.559500 -12.656400 10.742504 2.299898 -0.377650 12.165895 1.685276 -8.312339 -9.155650 4.149133 7.387968 -6.523500 0.866600 9.060300 -86.798463 6.926443 39.367732 50.389694 -53.351643 -24.740820 0.155320 0.326695 -10.771962 -7.125000 0.000000 0.000000 73.620515 -15.180010 -19.198584 -20.360641 29.914314 -5.169448 0.145732 -0.595122 -11.950321 7.125000 0.000000 0.000000 
1.211994 17.723641 -19.508695 12.032066 2.199153 9.507348 -28.202178 0.516838 5.968132 -1.118459 0.845601 0.557247 -1.803489 12.516135 7.340361 0.960100 -6.239000 -17.479500 -4.696323 -1.858099 -36.811382 -1.729392 -8.641978 23.629768 4.662133 -19.529000 -5.252920 -0.493900 4.505900 -12.504600 10.704494 2.269553 -0.356717 12.168932 1.668221 -8.278723 -9.200112 4.120209 7.337605 -6.545600 0.849000 9.036700 -86.848410 6.943348 39.702512 50.138386 -53.246194 -24.542478 0.146317 0.324104 -10.383542 -7.125000 0.000000 0.000000 73.675843 -15.243312 -18.952136 -20.456288 30.029357 -5.213634 0.146280 -0.595309 -11.974105 7.125000 0.000000 0.000000 
1.181781 17.720471 -19.374865 12.112673 2.255056 9.476610 -28.093289 0.251820 5.438325 -1.112540 1.582040 2.545562 -1.875492 12.509810 6.688001 1.032800 -6.464200 -18.137400 -4.499356 -1.908281 -36.615836 -1.767364 -8.726339 23.880399 4.680768 -19.598103 -5.142831 -0.475600 4.422900 -12.269500 10.662084 2.258736 -0.328391 12.161726 1.664445 -8.247402 -9.240484 4.093305 7.295727 -6.566700 0.831800 9.020600 -86.895922 6.988672 40.056075 49.810353 -53.106825 -24.287555 0.141171 0.318435 -9.854645 -7.125000 0.000000 0.000000 73.724030 -15.313062 -18.695238 -20.558250 30.151121 -5.260942 0.146734 -0.595499 -11.988209 7.125000 0.000000 0.000000 
1.150478 17.717797 -19.238856 12.186992 2.312704 9.437618 -27.990209 0.077633 5.255632 -1.090395 2.078923 3.885203 -1.899916 12.469435 6.419455 1.110700 -6.695600 -18.816600 -4.326143 -1.895649 -36.345831 -1.819231 -8.844055 24.222391 4.668735 -19.568506 -4.892188 -0.454200 4.323700 -11.989000 10.625439 2.247130 -0.293556 12.150651 1.657362 -8.208545 -9.261355 4.086457 7.247188 -6.573700 0.825900 9.000200 -86.960462 7.040754 40.398193 49.435401 -52.945746 -23.997213 0.136455 0.312185 -9.335730 -7.125000 0.000000 0.000000 73.745934 -15.358221 -18.453473 -20.646462 30.255956 -5.301532 0.146553 -0.595118 -11.940698 7.125000 0.000000 0.000000 
1.118680 17.717103 -19.100767 12.234408 2.359299 9.385920 -27.868311 -0.046878 5.190430 -1.060534 2.495498 5.007531 -1.903807 12.414013 6.337510 1.193300 -6.931600 -19.512800 -4.206073 -1.741937 -35.980955 -1.875433 -8.973953 24.594329 4.635559 -19.472461 -4.554145 -0.434200 4.228500 -11.720500 10.595621 2.244268 -0.258100 12.123213 1.651949 -8.172933 -9.256878 4.079398 7.236527 -6.567300 0.822400 8.990300 -87.040632 7.133119 40.736981 48.985734 -52.749488 -23.652295 0.135201 0.303676 -8.675041 -7.125000 0.000000 0.000000 73.745901 -15.404845 -18.193973 -20.739775 30.366369 -5.344896 0.146910 -0.595246 -11.912859 7.125000 0.000000 0.000000 
1.086386 17.720669 -18.960400 12.224980 2.395471 9.317920 -27.692245 -0.139181 5.152099 -1.022927 2.894304 6.082617 -1.897885 12.356121 6.370445 1.284400 -7.181500 -20.254200 -4.130546 -1.416682 -35.514581 -1.927570 -9.097911 24.937035 4.601261 -19.383279 -4.095497 -0.423600 4.177100 -11.575600 10.581019 2.254197 -0.220204 12.069200 1.649704 -8.141672 -9.234218 4.087274 7.230360 -6.549300 0.828200 8.978900 -87.139833 7.257035 41.062944 48.472190 -52.521343 -23.260434 0.135793 0.293862 -7.951211 -7.125000 0.000000 0.000000 73.726005 -15.452331 -17.923361 -20.838912 30.483094 -5.391848 0.147748 -0.596105 -11.917805 7.125000 0.000000 0.000000 
